cyclingleg_Default_states
version=1
nRows=8
nColumns=49
inDegrees=yes

# SIMM Motion File Header:
name cyclingleg_Default_states
datacolumns 49
datarows 8
otherdata 1
range 0.67606998 0.67841362
endheader
time	/jointset/bb/crank_angle/value	/jointset/bb/crank_angle/speed	/jointset/spindle/pedal_angle_r/value	/jointset/spindle/pedal_angle_r/speed	/jointset/ground_pelvis/pelvis_tilt/value	/jointset/ground_pelvis/pelvis_tilt/speed	/jointset/ground_pelvis/pelvis_list/value	/jointset/ground_pelvis/pelvis_list/speed	/jointset/ground_pelvis/pelvis_rotation/value	/jointset/ground_pelvis/pelvis_rotation/speed	/jointset/ground_pelvis/pelvis_tx/value	/jointset/ground_pelvis/pelvis_tx/speed	/jointset/ground_pelvis/pelvis_ty/value	/jointset/ground_pelvis/pelvis_ty/speed	/jointset/ground_pelvis/pelvis_tz/value	/jointset/ground_pelvis/pelvis_tz/speed	/jointset/hip_r/hip_angle_r/value	/jointset/hip_r/hip_angle_r/speed	/jointset/hip_r/hip_adduction_r/value	/jointset/hip_r/hip_adduction_r/speed	/jointset/hip_r/hip_rotation_r/value	/jointset/hip_r/hip_rotation_r/speed	/jointset/knee_r/knee_angle_r/value	/jointset/knee_r/knee_angle_r/speed	/jointset/knee_r/tib_tx_r/value	/jointset/knee_r/tib_tx_r/speed	/jointset/knee_r/tib_ty_r/value	/jointset/knee_r/tib_ty_r/speed	/jointset/tib_pat_r/pat_angle_r/value	/jointset/tib_pat_r/pat_angle_r/speed	/jointset/tib_pat_r/pat_tx_r/value	/jointset/tib_pat_r/pat_tx_r/speed	/jointset/tib_pat_r/pat_ty_r/value	/jointset/tib_pat_r/pat_ty_r/speed	/jointset/ankle_r/ankle_angle_r/value	/jointset/ankle_r/ankle_angle_r/speed	/jointset/subtalar_r/subtalar_angle_r/value	/jointset/subtalar_r/subtalar_angle_r/speed	/jointset/mtp_r/mtp_angle_r/value	/jointset/mtp_r/mtp_angle_r/speed	/forceset/bifemlh_r/activation	/forceset/bifemlh_r/fiber_length	/forceset/bifemsh_r/activation	/forceset/bifemsh_r/fiber_length	/forceset/glut_max2_r/activation	/forceset/glut_max2_r/fiber_length	/forceset/vas_int_r/activation	/forceset/vas_int_r/fiber_length
      0.67606998	   -588.80793859	  -1053.72914915	    577.46198262	    663.26502740	      0.00000000	      0.00000000	      0.00000000	     -0.00000000	     -0.00000000	     -0.00000000	     -0.10000000	      0.00000000	     -0.05000000	      0.00000000	     -0.00000000	      0.00000000	     44.35156784	    226.43723203	      4.35731225	     -2.18627967	     -0.56976572	    -48.15348557	    -76.97745771	   -635.02883550	      0.00499276	     -0.02906015	     -0.48146176	     -0.21466634	     17.54243919	      0.88761598	      0.03744682	     -0.21514890	     -0.02247701	      0.00404650	     21.74501737	     20.34387717	      0.00000000	      0.00000000	     -0.00000000	     -0.00000000	      0.03021857	      0.11249686	      0.02740898	      0.15745670	      0.02000356	      0.13303330	      0.02022843	      0.14030621
      0.67640023	   -589.15556007	  -1051.49661635	    577.68105232	    663.44008013	      0.00000000	      0.00000000	      0.00000000	     -0.00000000	     -0.00000000	     -0.00000000	     -0.10000000	      0.00000000	     -0.05000000	      0.00000000	     -0.00000000	      0.00000000	     44.42639528	    226.72321352	      4.35658639	     -2.20958212	     -0.58564982	    -48.04198135	    -77.18693378	   -633.57444457	      0.00498303	     -0.02987297	     -0.48153260	     -0.21433340	     17.54272580	      0.84860485	      0.03737579	     -0.21505657	     -0.02247575	      0.00357202	     21.75184752	     21.01922810	      0.00000000	      0.00000000	     -0.00000000	     -0.00000000	      0.03027579	      0.11246892	      0.02740463	      0.15735556	      0.02000354	      0.13308784	      0.02022743	      0.14041815
      0.67673048	   -589.50244466	  -1049.26165193	    577.90018011	    663.61371327	      0.00000000	      0.00000000	      0.00000000	     -0.00000000	     -0.00000000	     -0.00000000	     -0.10000000	      0.00000000	     -0.05000000	      0.00000000	     -0.00000000	      0.00000000	     44.50131626	    227.00266846	      4.35585287	     -2.23263663	     -0.60149712	    -47.93042883	    -77.39592790	   -632.10724174	      0.00497303	     -0.03067904	     -0.48160332	     -0.21399277	     17.54300001	      0.81254773	      0.03730478	     -0.21495878	     -0.02247465	      0.00309515	     21.75889984	     21.68919117	      0.00000000	      0.00000000	     -0.00000000	     -0.00000000	      0.03033313	      0.11244153	      0.02740018	      0.15725492	      0.02000353	      0.13314243	      0.02022644	      0.14053371
      0.67706711	   -589.85527360	  -1046.98089985	    578.12360183	    663.78903625	      0.00000000	      0.00000000	      0.00000000	     -0.00000000	     -0.00000000	     -0.00000000	     -0.10000000	      0.00000000	     -0.05000000	      0.00000000	     -0.00000000	      0.00000000	     44.57777913	    227.28084421	      4.35509737	     -2.25588007	     -0.61761278	    -47.81666692	    -77.60846049	   -630.59864886	      0.00496256	     -0.03149369	     -0.48167530	     -0.21363773	     17.54326777	      0.77879737	      0.03723244	     -0.21485350	     -0.02247369	      0.00260672	     21.76631523	     22.36655805	      0.00000000	      0.00000000	     -0.00000000	     -0.00000000	      0.03039170	      0.11241417	      0.02739555	      0.15715287	      0.02000351	      0.13319811	      0.02022543	      0.14069564
      0.67740374	   -590.20733592	  -1044.71960067	    578.34708328	    663.97656454	      0.00000000	      0.00000000	      0.00000000	     -0.00000000	     -0.00000000	     -0.00000000	     -0.10000000	      0.00000000	     -0.05000000	      0.00000000	     -0.00000000	      0.00000000	     44.65433487	    227.55714279	      4.35433410	     -2.27891146	     -0.63369022	    -47.70385900	    -77.82048401	   -629.09039341	      0.00495182	     -0.03230190	     -0.48174716	     -0.21327939	     17.54352468	      0.74805750	      0.03716013	     -0.21474711	     -0.02247289	      0.00211607	     21.77395774	     23.03882071	      0.00000000	      0.00000000	     -0.00000000	     -0.00000000	      0.03045037	      0.11238738	      0.02739081	      0.15705134	      0.02000350	      0.13325382	      0.02022443	      0.14080849
      0.67774037	   -590.55863740	  -1042.45656633	    578.57062805	    664.16278767	      0.00000000	      0.00000000	      0.00000000	     -0.00000000	     -0.00000000	     -0.00000000	     -0.10000000	      0.00000000	     -0.05000000	      0.00000000	     -0.00000000	      0.00000000	     44.73098268	    227.82705166	      4.35356311	     -2.30168513	     -0.64972970	    -47.59103698	    -78.03199815	   -627.56991108	      0.00494081	     -0.03310303	     -0.48181889	     -0.21291350	     17.54377174	      0.72027318	      0.03708786	     -0.21463530	     -0.02247226	      0.00162324	     21.78182564	     23.70556043	      0.00000000	      0.00000000	     -0.00000000	     -0.00000000	      0.03050915	      0.11236115	      0.02738596	      0.15695035	      0.02000348	      0.13330958	      0.02022343	      0.14092473
      0.67807700	   -590.90917782	  -1040.19093644	    578.79423594	    664.34702047	      0.00000000	      0.00000000	      0.00000000	     -0.00000000	     -0.00000000	     -0.00000000	     -0.10000000	      0.00000000	     -0.05000000	      0.00000000	     -0.00000000	      0.00000000	     44.80772052	    228.09043868	      4.35278450	     -2.32419813	     -0.66573126	    -47.47816135	    -78.24299905	   -626.03688302	      0.00492954	     -0.03389702	     -0.48189050	     -0.21254000	     17.54400994	      0.69540550	      0.03701562	     -0.21451792	     -0.02247180	      0.00112835	     21.78991708	     24.36676410	      0.00000000	      0.00000000	     -0.00000000	     -0.00000000	      0.03056802	      0.11233548	      0.02738101	      0.15684989	      0.02000347	      0.13336536	      0.02022243	      0.14107256
      0.67841362	   -591.25895638	  -1037.94055507	    579.01790629	    664.54054652	      0.00000000	      0.00000000	      0.00000000	     -0.00000000	     -0.00000000	     -0.00000000	     -0.10000000	      0.00000000	     -0.05000000	      0.00000000	     -0.00000000	      0.00000000	     44.88454620	    228.35128124	      4.35199835	     -2.34648973	     -0.68169486	    -47.36604602	    -78.45348255	   -624.50224216	      0.00491799	     -0.03468441	     -0.48196198	     -0.21216262	     17.54424025	      0.67342747	      0.03694343	     -0.21439866	     -0.02247150	      0.00063152	     21.79823020	     25.02286607	      0.00000000	      0.00000000	     -0.00000000	     -0.00000000	      0.03062698	      0.11231038	      0.02737596	      0.15674996	      0.02000345	      0.13342119	      0.02022144	      0.14118947
